<?xml version="1.0" encoding="utf-8"?>
<!DOCTYPE svg PUBLIC "-//W3C//DTD SVG 1.0//EN" "http://www.w3.org/TR/2001/REC-SVG-20010904/DTD/svg10.dtd">
<svg xmlns="http://www.w3.org/2000/svg" width="700px" height="200px" viewBox="11 17 700 200">
    <g fill="#867E7A">
      <path d="M132.099,97.597L132.099,97.597L132.099,97.597L132.099,97.597c-3.855,3.26-11.14,5.584-27.014,5.584 c-10.488,0-19.106-1.106-21.713-2.608c-2.863-1.616-5.159-6.265-5.159-9.354c0-1.247,1.049-1.899,2.069-1.757 c5.074,0.879,15.959,2.494,24.548,2.494c11.055,0,15.761-1.134,17.745-2.976c2.324-1.814,3.685-4.791,3.685-10.517 c0-4.649-0.992-6.775-2.239-7.767c-3.43-3.033-36.794-7.654-42.151-11.197c-2.976-2.126-4.252-7.824-4.252-14.598 c0-10.743,2.778-17.15,7.115-20.835c4.791-4.082,13.408-6.52,27.383-6.52c10.602,0,17.235,0.709,19.843,1.928 c2.551,1.247,5.301,6.038,5.301,9.014c0,1.134-0.907,1.871-1.899,1.729c-4.904-0.482-13.153-1.616-22.28-1.616 c-10.857,0-16.611,1.502-19.106,3.373c-2.494,2.069-3.855,6.038-3.855,10.828c0,3.713,0.652,5.811,1.502,6.945 c2.976,3.543,37.361,7.625,42.888,11.197c2.75,1.729,4.706,6.576,4.706,14.854C139.214,87.165,136.351,93.94,132.099,97.597z"/>
      <path d="M171.983,87.165L171.983,87.165L171.983,87.165L171.983,87.165c3.657,2.806,10.488,4.535,22.025,4.535 c9.638,0,18.879-1.502,23.216-1.843c0.85-0.142,1.616,0.227,1.502,1.474c-0.255,2.863-2.75,7.285-5.357,8.872 c-2.721,1.502-9.978,2.863-23.272,2.863c-14.457,0-23.216-2.976-27.865-7.257c-5.443-4.592-10.233-14.74-10.233-34.384 c0-20.069,5.386-30.926,11.991-36.425c5.017-4.139,13.266-7.2,28.913-7.2c10.488,0,17.49,0.454,20.466,2.296 c3.231,1.757,5.216,6.151,5.216,8.504c0,1.02-0.51,1.899-1.757,1.757c-5.074-0.624-12.076-1.616-22.564-1.616 c-12.161,0-18.255,1.871-21.798,5.102c-4.45,3.77-7.625,12.302-7.625,26.674C164.839,74.778,167.532,83.82,171.983,87.165z"/>
      <path d="M300.109,100.346L300.109,100.346L300.109,100.346L300.109,100.346c0,1.247-0.595,1.729-1.417,1.729l0,0h-6.718l0,0 c-3.288,0-4.025-0.85-4.025-4.394l0,0V71.433l0,0c0-5.528-0.737-6.151-5.329-6.151l0,0h-32.003l0,0c-4.847,0-5.528,0.51-5.528,6.151 l0,0v26.135l0,0c0,3.883-0.992,4.507-4.479,4.507l0,0h-6.378l0,0c-1.247,0-1.502-0.85-1.502-1.871l0,0V20.353l0,0 c0-1.247,0.51-1.757,1.502-1.757l0,0h6.52l0,0c3.345,0,4.337,0.765,4.337,4.876l0,0v24.548l0,0c0,6.038,0.68,6.265,5.528,6.265l0,0 h32.117l0,0c4.337,0,5.216-0.765,5.216-5.669l0,0V23.216l0,0c0-3.855,0.737-4.62,4.167-4.62l0,0h6.576l0,0 c1.304,0,1.417,0.652,1.417,1.871l0,0V100.346z"/>
      <path d="M387.132,70.809L387.132,70.809L387.132,70.809L387.132,70.809c0,14.117-2.013,20.409-6.917,25.002 c-4.082,3.798-13.068,7.37-27.723,7.37c-14.343,0-23.754-3.458-28.091-8.107c-4.11-4.734-5.443-10.517-5.443-23.131l0,0V20.353l0,0 c0-1.247,0.652-1.757,1.446-1.757l0,0h4.224l0,0c5.272,0,6.888,0.652,6.888,6.803l0,0v44.787l0,0c0,9.666,0.992,13.748,3.6,16.838 c2.438,2.693,8.391,4.932,17.518,4.932c8.986,0,14.74-1.757,17.717-4.479c2.75-2.551,4.309-6.775,4.309-17.036l0,0V25.143l0,0 c0-5.896,1.729-6.548,6.917-6.548l0,0h3.94l0,0c1.219,0,1.616,0.51,1.616,1.616l0,0V70.809z"/>
      <path d="M452.187,65.792L452.187,65.792L452.187,65.792L452.187,65.792c-1.843-1.02-3.94-1.247-10.857-1.247l0,0h-19.814l0,0 c-2.324,0-3.061,0.879-3.061,3.373l0,0v20.438l0,0c0,2.608,0.879,3.09,3.288,3.231c3.09,0.113,8.249,0.369,14.457,0.369 c8.249,0,14.145-0.51,16.866-2.353c2.665-2.013,4.677-5.414,4.677-11.679C457.743,71.688,454.994,67.266,452.187,65.792z  M451.337,31.465L451.337,31.465L451.337,31.465L451.337,31.465c-2.608-1.729-6.746-2.353-16.526-2.353 c-4.819,0-9.609,0.142-13.294,0.51c-2.58,0.113-3.061,0.879-3.061,3.345l0,0v18.397l0,0c0,2.296,0.879,2.693,2.92,2.693l0,0h19.587 l0,0c4.847,0,7.767-0.255,9.383-1.134c2.239-1.304,5.017-4.677,5.017-11.452C455.362,35.263,453.548,32.967,451.337,31.465z  M461.967,98.617L461.967,98.617L461.967,98.617L461.967,98.617c-3.742,2.466-10.261,3.969-25.909,3.969 c-10.97,0-19.984-0.255-27.213-0.652c-1.02,0-2.863-0.482-2.863-3.317l0,0V21.572l0,0c0-1.956,1.502-2.324,2.494-2.324 c7.597-0.397,17.093-0.652,27.468-0.652c16.639,0,22.28,1.502,25.767,3.855c3.515,2.551,6.236,7.909,6.236,16.044 c0,7.398-1.956,12.132-3.827,15.165c-0.907,1.757-1.559,2.608-1.559,3.713c0,1.02,0.652,2.013,1.928,3.572 c2.863,3.231,6.208,8.646,6.208,17.32C470.698,89.32,466.219,95.924,461.967,98.617z"/>
      <path d="M500.688,29.48L500.688,29.48L500.688,29.48L500.688,29.48c-2.58,0.142-3.175,0.879-3.175,3.487l0,0v19.077l0,0 c0,2.013,0.85,2.353,2.494,2.353l0,0h37.899l0,0c1.106,0,1.729,0.51,1.729,1.729c0,1.786-2.239,6.548-4.394,8.05 c-1.389,0.879-2.976,0.992-5.726,0.992l0,0h-29.395l0,0c-1.871,0-2.608,0.624-2.608,2.863l0,0v19.701l0,0 c0,2.721,0.992,3.6,3.543,3.6c2.608,0,6.548,0.113,13.946,0.113c12.898,0,21.798-0.368,28.46-0.737c1.02,0,1.701,0.369,1.701,1.502 c0,2.75-3.543,8.135-6.038,9.014c-2.211,0.992-8.476,1.106-22.876,1.106c-11.735,0-21.232,0-28.346-0.397 c-1.02,0-2.863-0.482-2.863-3.317l0,0V21.458l0,0c0-2.098,1.616-2.494,2.608-2.494c7.739-0.227,15.364-0.595,25.994-0.595 c12.331,0,22.337,0,24.52,0.737c2.324,0.624,5.187,6.038,5.187,9.014c0,0.992-0.85,1.616-1.843,1.616 c-6.406-0.255-15.902-0.482-25.512-0.482C509.787,29.254,504.373,29.254,500.688,29.48z"/>
      <path d="M604.606,31.096L604.606,31.096L604.606,31.096L604.606,31.096c-1.984-1.616-7.087-2.494-16.469-2.494 c-5.244,0-10.998,0.142-14.117,0.369c-1.502,0.142-2.239,0.652-2.239,2.494l0,0v24.321l0,0c0,2.353,0.482,2.835,2.608,2.835l0,0 h18.737l0,0c4.791,0,6.775-0.227,8.504-0.85c2.466-0.879,6.633-6.888,6.633-15.647C608.263,36.51,606.902,33.08,604.606,31.096z  M559.762,20.721L559.762,20.721L559.762,20.721L559.762,20.721c0-1.247,0.709-1.757,1.531-1.757 c7.313-0.227,18.482-0.709,26.617-0.709c16.328,0,22.224,1.219,26.192,3.969c4.025,2.778,6.775,8.277,6.775,17.631 c0,9.893-2.75,16.271-6.661,21.458c-1.616,2.098-2.211,3.231-2.211,4.847c0,1.871,0.595,4.025,2.211,8.504l0,0l9.439,24.945l0,0 c0.482,1.247-0.113,2.466-1.417,2.466l0,0h-2.976l0,0c-5.896,0-8.646-1.616-10.885-8.135l0,0l-6.378-17.405l0,0 c-2.239-6.094-4.592-7.398-10.488-7.398l0,0h-16.866l0,0c-1.984,0-2.75,0.454-2.75,2.806l0,0v27.383l0,0 c0,2.126-0.482,2.75-2.409,2.75l0,0h-8.305l0,0c-1.191,0-1.417-0.624-1.417-1.729l0,0V20.721z"/>
      <path d="M704.273,93.572L704.273,93.572L704.273,93.572L704.273,93.572c0,2.976-1.247,4.592-4.62,5.584 c-5.754,1.502-15.109,3.175-26.617,3.175c-15.874,0-23.754-3.033-28.658-7.37c-5.074-4.677-9.865-14.315-9.865-33.846 c0-21.118,6.265-31.38,11.65-36.028c5.102-4.479,14.23-7.852,30.501-7.852c11.452,0,18.368,0.68,21.458,2.551 c2.891,1.446,5.386,6.293,5.386,8.901c0,1.049-0.992,1.814-1.843,1.672c-5.159-0.737-14.4-1.928-23.528-1.928 c-12.472,0-19.616,1.928-23.272,5.159c-4.11,3.742-7.937,12.501-7.937,26.419c0,14.4,2.75,22.932,7.087,26.787 c3.26,2.976,9.609,4.847,18.482,4.847c7.002,0,12.643-0.737,16.016-1.644c2.296-0.482,3.146-1.474,3.146-4.195l0,0V69.392l0,0 c0-2.239-0.85-2.976-3.146-2.976l0,0h-15.477l0,0c-1.049,0-1.786-0.255-1.786-1.559c0-2.126,2.665-7.087,4.394-8.079 c1.361-0.794,2.863-0.794,5.726-0.794l0,0h18.283l0,0c2.863,0,4.62,0.539,4.62,4.28l0,0V93.572z"/>
      <path d="M202.257,133.172L202.257,133.172L202.257,133.172L202.257,133.172c-2.098-1.502-5.528-2.381-15.392-2.381 c-5.896,0-11.339,0-14.513,0.255c-1.474,0.113-2.239,0.624-2.239,2.353l0,0v25.313l0,0c0,2.041,0.51,2.665,2.551,2.665l0,0h15.562 l0,0c7.002,0,10.148-0.368,12.189-1.304c3.09-1.871,6.066-6.208,6.066-14.372C206.48,138.444,204.751,134.844,202.257,133.172z  M210.647,167.613L210.647,167.613L210.647,167.613L210.647,167.613c-3.798,2.92-10.375,3.997-20.806,3.997l0,0h-17.036l0,0 c-1.814,0-2.551,0.652-2.551,3.146l0,0v26.532l0,0c0,2.126-0.51,2.721-2.494,2.721l0,0h-8.249l0,0c-1.247,0-1.474-0.595-1.474-1.729 l0,0v-79.483l0,0c0-1.389,0.737-1.757,1.616-1.899c8.107-0.34,17.49-0.595,27.213-0.595c15.761,0,21.005,1.106,24.775,3.713 c3.827,2.693,7.37,8.391,7.37,20.58C219.01,155.225,215.211,164.353,210.647,167.613z"/>
      <path d="M300.109,202.28L300.109,202.28L300.109,202.28L300.109,202.28c0,1.247-0.595,1.729-1.417,1.729l0,0h-6.718l0,0 c-3.288,0-4.025-0.85-4.025-4.479l0,0v-26.135l0,0c0-5.556-0.737-6.151-5.329-6.151l0,0h-32.003l0,0 c-4.791,0-5.528,0.482-5.528,6.151l0,0v26.022l0,0c0,3.997-0.992,4.592-4.479,4.592l0,0h-6.378l0,0c-1.247,0-1.502-0.85-1.502-1.843 l0,0v-79.88l0,0c0-1.247,0.51-1.729,1.502-1.729l0,0h6.52l0,0c3.345,0,4.337,0.737,4.337,4.762l0,0v24.633l0,0 c0,6.038,0.737,6.265,5.528,6.265l0,0h32.117l0,0c4.337,0,5.216-0.737,5.216-5.641l0,0v-25.483l0,0c0-3.798,0.737-4.535,4.167-4.535 l0,0h6.576l0,0c1.304,0,1.417,0.595,1.417,1.843l0,0V202.28z"/>
      <path d="M331.318,200.409L331.318,200.409L331.318,200.409L331.318,200.409c0,2.608-1.105,3.6-3.572,3.6l0,0h-7.285l0,0 c-1.105,0-1.502-0.85-1.502-1.843l0,0v-78.151l0,0c0-2.353,1.02-3.458,3.26-3.458l0,0h7.625l0,0c1.219,0,1.474,0.737,1.474,1.843 l0,0V200.409z"/>
      <path d="M350.367,122.145L350.367,122.145L350.367,122.145L350.367,122.145c0-0.85,0.255-1.587,1.247-1.587l0,0h7.143l0,0 c3.005,0,3.969,0.992,3.969,4.649l0,0v64.46l0,0c0,2.721,0.992,3.6,3.543,3.6c2.353,0-0.368,0.142,7.143,0.142 c12.104,0,21.203-0.539,27.213-1.02c1.134,0,1.871,0.482,1.871,1.729c0,2.693-3.345,7.682-5.754,8.901 c-1.984,0.992-8.759,1.247-22.961,1.247c-11.679,0-13.266,0-20.551-0.368c-0.992,0-2.863-0.482-2.863-3.345l0,0V122.145z"/>
      <path d="M426.704,200.409L426.704,200.409L426.704,200.409L426.704,200.409c0,2.608-1.134,3.6-3.543,3.6l0,0h-7.313l0,0 c-1.049,0-1.417-0.85-1.417-1.843l0,0v-78.151l0,0c0-2.353,0.935-3.458,3.146-3.458l0,0h7.625l0,0c1.247,0,1.502,0.737,1.502,1.843 l0,0V200.409z"/>
      <path d="M495.586,199.531L495.586,199.531L495.586,199.531L495.586,199.531c-3.855,3.232-11.112,5.556-26.986,5.556 c-10.488,0-19.105-1.077-21.713-2.58c-2.863-1.587-5.159-6.321-5.159-9.354c0-1.247,1.049-1.871,2.041-1.757 c5.074,0.879,15.931,2.494,24.576,2.494c11.027,0,15.761-1.134,17.745-2.976c2.296-1.871,3.657-4.791,3.657-10.517 c0-4.677-0.992-6.775-2.239-7.767c-3.402-3.09-36.794-7.654-42.123-11.254c-2.92-2.041-4.28-7.767-4.28-14.542 c0-10.743,2.806-17.15,7.143-20.891c4.762-4.025,13.38-6.52,27.354-6.52c10.602,0,17.235,0.765,19.842,1.984 c2.551,1.247,5.272,6.038,5.272,9.014c0,1.134-0.85,1.871-1.843,1.729c-4.904-0.482-13.153-1.587-22.28-1.587 c-10.857,0-16.639,1.474-19.106,3.288c-2.494,2.098-3.855,6.094-3.855,10.885c0,3.713,0.624,5.839,1.502,6.888 c2.976,3.6,37.332,7.71,42.86,11.225c2.721,1.786,4.734,6.548,4.734,14.882C502.729,189.043,499.866,195.874,495.586,199.531z"/>
    </g>
  <path fill="#6BABE0" d="M11.202,20.523L11.202,20.523L11.202,20.523L11.202,20.523c-0.312-1.361,0.51-1.956,1.757-1.956l0,0h11.339 l0,0c4.649,0,7.143,1.361,9.128,7.257l0,0l59.301,176.145l0,0c0.369,1.105,0,1.984-1.106,1.984l0,0H80.027l0,0 c-4.167,0-7.398-1.474-9.184-7.257l0,0L11.202,20.523z"/>
</svg>
